<?xml version="1.0" standalone="no"?>
        <!DOCTYPE svg PUBLIC "-//W3C//DTD SVG 1.1//EN" 
        "http://www.w3.org/Graphics/SVG/1.1/DTD/svg11.dtd"> <svg style="color: red" xmlns="http://www.w3.org/2000/svg" viewBox="0 0 256 256"><rect width="256" height="256" fill="none"></rect><path d="M232,84v40a8,8,0,0,1-8,8,103.2,103.2,0,0,1-48-11.7V156A76,76,0,1,1,86.6,81.2a8,8,0,0,1,6.5,1.7A7.8,7.8,0,0,1,96,89.1v41.6a7.9,7.9,0,0,1-4.6,7.2A20,20,0,1,0,120,156V28a8,8,0,0,1,8-8h40a8,8,0,0,1,8,8,48,48,0,0,0,48,48A8,8,0,0,1,232,84Z" fill="red"></path></svg> 